<svg width="20" height="20" viewBox="0 0 20 20" fill="none" xmlns="http://www.w3.org/2000/svg">
<g id="eye-slash">
<path id="Vector" d="M1.66668 18.9584C1.50835 18.9584 1.35001 18.9001 1.22501 18.7751C0.983346 18.5334 0.983346 18.1334 1.22501 17.8917L7.45001 11.6667C7.69168 11.4251 8.09168 11.4251 8.33335 11.6667C8.57501 11.9084 8.57501 12.3084 8.33335 12.5501L2.10835 18.7751C1.98335 18.9001 1.82501 18.9584 1.66668 18.9584Z" fill="#394453"/>
<g id="Vector_2">
<path d="M7.89166 12.7333C7.73333 12.7333 7.57499 12.675 7.44999 12.55C6.76666 11.8666 6.39166 10.9583 6.39166 9.99995C6.39166 8.00828 8.00833 6.39162 9.99999 6.39162C10.9583 6.39162 11.8667 6.76662 12.55 7.44995C12.6667 7.56662 12.7333 7.72495 12.7333 7.89162C12.7333 8.05828 12.6667 8.21662 12.55 8.33328L8.33333 12.55C8.20833 12.675 8.04999 12.7333 7.89166 12.7333ZM9.99999 7.64162C8.69999 7.64162 7.64166 8.69995 7.64166 9.99995C7.64166 10.4166 7.74999 10.8166 7.94999 11.1666L11.1667 7.94995C10.8167 7.74995 10.4167 7.64162 9.99999 7.64162Z" fill="#394453"/>
<path d="M4.66666 15.425C4.52499 15.425 4.37499 15.375 4.25833 15.275C3.36666 14.5166 2.56666 13.5833 1.88333 12.5C0.999992 11.125 0.999992 8.88328 1.88333 7.49995C3.91666 4.31662 6.87499 2.48328 9.99999 2.48328C11.8333 2.48328 13.6417 3.11662 15.225 4.30828C15.5 4.51662 15.5583 4.90828 15.35 5.18328C15.1417 5.45828 14.75 5.51662 14.475 5.30828C13.1083 4.27495 11.5583 3.73328 9.99999 3.73328C7.30833 3.73328 4.73333 5.34995 2.93333 8.17495C2.30833 9.14995 2.30833 10.8499 2.93333 11.825C3.55833 12.7999 4.27499 13.6416 5.06666 14.325C5.32499 14.55 5.35833 14.9416 5.13333 15.2083C5.01666 15.35 4.84166 15.425 4.66666 15.425Z" fill="#394453"/>
<path d="M9.99999 17.5166C8.89166 17.5166 7.80833 17.2916 6.76666 16.8499C6.44999 16.7166 6.29999 16.3499 6.43333 16.0333C6.56666 15.7166 6.93333 15.5666 7.24999 15.7C8.13333 16.075 9.05833 16.2666 9.99166 16.2666C12.6833 16.2666 15.2583 14.65 17.0583 11.825C17.6833 10.8499 17.6833 9.14995 17.0583 8.17495C16.8 7.76662 16.5167 7.37495 16.2167 7.00828C16 6.74162 16.0417 6.34995 16.3083 6.12495C16.575 5.90828 16.9667 5.94162 17.1917 6.21662C17.5167 6.61662 17.8333 7.04995 18.1167 7.49995C19 8.87495 19 11.1166 18.1167 12.5C16.0833 15.6833 13.125 17.5166 9.99999 17.5166Z" fill="#394453"/>
<path d="M10.575 13.5583C10.2833 13.5583 10.0167 13.35 9.95833 13.05C9.89166 12.7083 10.1167 12.3833 10.4583 12.325C11.375 12.1583 12.1417 11.3916 12.3083 10.4749C12.375 10.1333 12.7 9.91662 13.0417 9.97495C13.3833 10.0416 13.6083 10.3666 13.5417 10.7083C13.275 12.15 12.125 13.2916 10.6917 13.5583C10.65 13.55 10.6167 13.5583 10.575 13.5583Z" fill="#394453"/>
<path d="M12.1083 8.51662C11.95 8.51662 11.7917 8.45828 11.6667 8.33328C11.425 8.09162 11.425 7.69162 11.6667 7.44995L17.8917 1.22495C18.1333 0.983285 18.5333 0.983285 18.775 1.22495C19.0167 1.46662 19.0167 1.86662 18.775 2.10828L12.55 8.33328C12.425 8.45828 12.2667 8.51662 12.1083 8.51662Z" fill="#394453"/>
</g>
</g>
</svg>
