<svg xmlns="http://www.w3.org/2000/svg" xmlns:xlink="http://www.w3.org/1999/xlink" width="1080" zoomAndPan="magnify" viewBox="0 0 810 809.999993" height="1080" preserveAspectRatio="xMidYMid meet" version="1.0"><path fill="#ffffff" d="M 405 373.738281 C 403.402344 373.738281 401.808594 373.699219 400.210938 373.621094 C 398.617188 373.542969 397.023438 373.425781 395.433594 373.269531 C 393.847656 373.113281 392.261719 372.917969 390.683594 372.683594 C 389.101562 372.449219 387.53125 372.175781 385.964844 371.863281 C 384.398438 371.550781 382.839844 371.203125 381.289062 370.816406 C 379.742188 370.425781 378.203125 370 376.675781 369.539062 C 375.144531 369.074219 373.628906 368.574219 372.125 368.035156 C 370.621094 367.496094 369.132812 366.921875 367.65625 366.3125 C 366.183594 365.699219 364.722656 365.054688 363.277344 364.371094 C 361.835938 363.6875 360.410156 362.96875 359 362.21875 C 357.59375 361.464844 356.203125 360.675781 354.832031 359.855469 C 353.464844 359.035156 352.117188 358.179688 350.789062 357.292969 C 349.460938 356.40625 348.15625 355.488281 346.871094 354.535156 C 345.589844 353.585938 344.332031 352.601562 343.097656 351.589844 C 341.863281 350.578125 340.652344 349.535156 339.46875 348.460938 C 338.285156 347.390625 337.128906 346.289062 336 345.160156 C 334.871094 344.03125 333.769531 342.875 332.699219 341.691406 C 331.625 340.507812 330.582031 339.296875 329.570312 338.0625 C 328.558594 336.828125 327.574219 335.570312 326.625 334.289062 C 325.671875 333.003906 324.753906 331.699219 323.867188 330.371094 C 322.976562 329.042969 322.125 327.695312 321.304688 326.324219 C 320.480469 324.957031 319.695312 323.566406 318.941406 322.15625 C 318.191406 320.75 317.472656 319.324219 316.789062 317.878906 C 316.105469 316.4375 315.460938 314.976562 314.847656 313.5 C 314.238281 312.027344 313.664062 310.535156 313.125 309.03125 C 312.585938 307.53125 312.085938 306.011719 311.621094 304.484375 C 311.160156 302.957031 310.734375 301.417969 310.34375 299.871094 C 309.957031 298.320312 309.605469 296.761719 309.296875 295.195312 C 308.984375 293.628906 308.710938 292.058594 308.476562 290.476562 C 308.242188 288.898438 308.046875 287.3125 307.890625 285.722656 C 307.734375 284.132812 307.617188 282.542969 307.539062 280.949219 C 307.460938 279.351562 307.421875 277.757812 307.421875 276.160156 C 307.421875 274.5625 307.460938 272.964844 307.539062 271.371094 C 307.617188 269.777344 307.734375 268.183594 307.890625 266.59375 C 308.046875 265.003906 308.242188 263.421875 308.476562 261.839844 C 308.710938 260.261719 308.984375 258.6875 309.296875 257.121094 C 309.605469 255.554688 309.957031 254 310.34375 252.449219 C 310.734375 250.898438 311.160156 249.363281 311.621094 247.832031 C 312.085938 246.304688 312.585938 244.789062 313.125 243.285156 C 313.664062 241.78125 314.238281 240.292969 314.847656 238.816406 C 315.460938 237.34375 316.105469 235.882812 316.789062 234.4375 C 317.472656 232.996094 318.191406 231.570312 318.941406 230.160156 C 319.695312 228.753906 320.480469 227.363281 321.304688 225.992188 C 322.125 224.625 322.976562 223.273438 323.867188 221.945312 C 324.753906 220.621094 325.671875 219.3125 326.625 218.03125 C 327.574219 216.75 328.558594 215.488281 329.570312 214.253906 C 330.582031 213.019531 331.625 211.8125 332.699219 210.628906 C 333.769531 209.445312 334.871094 208.289062 336 207.160156 C 337.128906 206.03125 338.285156 204.929688 339.46875 203.859375 C 340.652344 202.785156 341.863281 201.742188 343.097656 200.730469 C 344.332031 199.714844 345.589844 198.734375 346.871094 197.78125 C 348.15625 196.832031 349.460938 195.910156 350.789062 195.023438 C 352.117188 194.136719 353.464844 193.285156 354.832031 192.460938 C 356.203125 191.640625 357.59375 190.855469 359 190.101562 C 360.410156 189.347656 361.835938 188.632812 363.277344 187.949219 C 364.722656 187.265625 366.183594 186.617188 367.65625 186.007812 C 369.132812 185.394531 370.621094 184.820312 372.125 184.285156 C 373.628906 183.746094 375.144531 183.246094 376.675781 182.78125 C 378.203125 182.316406 379.742188 181.890625 381.289062 181.503906 C 382.839844 181.117188 384.398438 180.765625 385.964844 180.453125 C 387.53125 180.144531 389.101562 179.871094 390.683594 179.636719 C 392.261719 179.402344 393.847656 179.207031 395.433594 179.050781 C 397.023438 178.894531 398.617188 178.777344 400.210938 178.695312 C 401.808594 178.617188 403.402344 178.578125 405 178.578125 C 534.472656 183.894531 534.472656 368.421875 405 373.738281 Z M 405 373.738281 " fill-opacity="1" fill-rule="nonzero"/><path fill="#ffffff" d="M 615.726562 566.367188 C 615.726562 567.433594 615.699219 568.496094 615.648438 569.558594 C 615.597656 570.621094 615.519531 571.683594 615.414062 572.746094 C 615.3125 573.804688 615.179688 574.859375 615.023438 575.914062 C 614.867188 576.964844 614.6875 578.015625 614.480469 579.058594 C 614.273438 580.105469 614.039062 581.144531 613.78125 582.175781 C 613.523438 583.207031 613.238281 584.234375 612.929688 585.253906 C 612.621094 586.273438 612.289062 587.28125 611.929688 588.285156 C 611.570312 589.289062 611.1875 590.28125 610.78125 591.265625 C 610.371094 592.25 609.941406 593.222656 609.488281 594.183594 C 609.03125 595.148438 608.550781 596.097656 608.050781 597.035156 C 607.550781 597.976562 607.023438 598.902344 606.476562 599.816406 C 605.929688 600.730469 605.359375 601.628906 604.769531 602.511719 C 604.175781 603.398438 603.566406 604.269531 602.929688 605.125 C 602.296875 605.980469 601.640625 606.820312 600.964844 607.640625 C 600.289062 608.464844 599.59375 609.269531 598.878906 610.058594 C 598.164062 610.847656 597.429688 611.621094 596.679688 612.371094 C 595.925781 613.125 595.15625 613.859375 594.367188 614.574219 C 593.578125 615.289062 592.769531 615.984375 591.949219 616.660156 C 591.125 617.335938 590.285156 617.988281 589.429688 618.625 C 588.574219 619.257812 587.703125 619.871094 586.820312 620.464844 C 585.933594 621.054688 585.035156 621.625 584.121094 622.171875 C 583.207031 622.71875 582.28125 623.242188 581.34375 623.746094 C 580.402344 624.246094 579.453125 624.726562 578.492188 625.179688 C 577.527344 625.636719 576.554688 626.066406 575.570312 626.472656 C 574.585938 626.882812 573.59375 627.265625 572.589844 627.621094 C 571.589844 627.980469 570.578125 628.316406 569.558594 628.625 C 568.539062 628.933594 567.515625 629.214844 566.480469 629.472656 C 565.449219 629.734375 564.410156 629.964844 563.367188 630.171875 C 562.320312 630.382812 561.273438 630.5625 560.21875 630.71875 C 559.167969 630.875 558.109375 631.003906 557.050781 631.109375 C 555.992188 631.214844 554.929688 631.289062 553.867188 631.34375 C 552.800781 631.394531 551.738281 631.421875 550.671875 631.421875 L 259.328125 631.421875 C 258.261719 631.421875 257.199219 631.394531 256.132812 631.34375 C 255.070312 631.289062 254.007812 631.210938 252.949219 631.109375 C 251.890625 631.003906 250.832031 630.875 249.78125 630.71875 C 248.726562 630.5625 247.679688 630.382812 246.632812 630.171875 C 245.589844 629.964844 244.550781 629.734375 243.519531 629.472656 C 242.484375 629.214844 241.460938 628.933594 240.441406 628.625 C 239.421875 628.316406 238.410156 627.980469 237.410156 627.621094 C 236.40625 627.265625 235.414062 626.882812 234.429688 626.472656 C 233.445312 626.066406 232.472656 625.636719 231.507812 625.179688 C 230.546875 624.726562 229.597656 624.246094 228.65625 623.746094 C 227.71875 623.242188 226.792969 622.71875 225.878906 622.171875 C 224.964844 621.625 224.066406 621.054688 223.179688 620.460938 C 222.296875 619.871094 221.425781 619.257812 220.570312 618.625 C 219.714844 617.988281 218.875 617.335938 218.050781 616.660156 C 217.230469 615.984375 216.421875 615.289062 215.632812 614.574219 C 214.84375 613.859375 214.074219 613.125 213.320312 612.371094 C 212.570312 611.621094 211.835938 610.847656 211.121094 610.058594 C 210.40625 609.269531 209.710938 608.464844 209.035156 607.640625 C 208.359375 606.820312 207.703125 605.980469 207.070312 605.125 C 206.433594 604.269531 205.824219 603.398438 205.230469 602.511719 C 204.640625 601.628906 204.070312 600.730469 203.523438 599.816406 C 202.976562 598.902344 202.449219 597.976562 201.949219 597.035156 C 201.445312 596.097656 200.96875 595.148438 200.515625 594.183594 C 200.058594 593.222656 199.628906 592.25 199.21875 591.265625 C 198.8125 590.28125 198.429688 589.289062 198.070312 588.285156 C 197.710938 587.28125 197.378906 586.273438 197.070312 585.253906 C 196.761719 584.234375 196.476562 583.207031 196.21875 582.175781 C 195.960938 581.144531 195.726562 580.105469 195.519531 579.058594 C 195.3125 578.015625 195.132812 576.964844 194.976562 575.914062 C 194.820312 574.859375 194.6875 573.804688 194.585938 572.742188 C 194.480469 571.683594 194.402344 570.621094 194.351562 569.558594 C 194.300781 568.496094 194.273438 567.433594 194.273438 566.367188 C 194.273438 474.863281 288.816406 400.316406 405 400.316406 C 521.183594 400.316406 615.726562 474.863281 615.726562 566.367188 Z M 615.726562 566.367188 " fill-opacity="1" fill-rule="nonzero"/><path fill="#ffffff" d="M 405 0 C 398.371094 0 391.746094 0.164062 385.128906 0.488281 C 378.507812 0.8125 371.898438 1.300781 365.304688 1.949219 C 358.707031 2.601562 352.128906 3.410156 345.574219 4.382812 C 339.019531 5.355469 332.488281 6.488281 325.988281 7.78125 C 319.488281 9.074219 313.023438 10.527344 306.59375 12.136719 C 300.164062 13.746094 293.777344 15.515625 287.433594 17.4375 C 281.09375 19.363281 274.800781 21.441406 268.558594 23.675781 C 262.320312 25.90625 256.136719 28.292969 250.011719 30.828125 C 243.890625 33.367188 237.832031 36.050781 231.839844 38.882812 C 225.847656 41.71875 219.929688 44.699219 214.085938 47.820312 C 208.238281 50.945312 202.472656 54.210938 196.789062 57.621094 C 191.101562 61.027344 185.503906 64.574219 179.992188 68.253906 C 174.484375 71.9375 169.066406 75.753906 163.742188 79.699219 C 158.417969 83.648438 153.195312 87.726562 148.070312 91.929688 C 142.945312 96.136719 137.929688 100.464844 133.019531 104.914062 C 128.109375 109.367188 123.308594 113.933594 118.621094 118.621094 C 113.933594 123.308594 109.367188 128.109375 104.914062 133.019531 C 100.464844 137.929688 96.136719 142.945312 91.929688 148.070312 C 87.726562 153.195312 83.648438 158.417969 79.699219 163.742188 C 75.753906 169.066406 71.9375 174.484375 68.253906 179.992188 C 64.574219 185.503906 61.027344 191.101562 57.621094 196.789062 C 54.210938 202.472656 50.945312 208.238281 47.820312 214.085938 C 44.699219 219.929688 41.71875 225.847656 38.882812 231.839844 C 36.050781 237.832031 33.367188 243.890625 30.828125 250.011719 C 28.292969 256.136719 25.90625 262.320312 23.675781 268.558594 C 21.441406 274.800781 19.363281 281.09375 17.4375 287.433594 C 15.515625 293.777344 13.746094 300.164062 12.136719 306.59375 C 10.527344 313.023438 9.074219 319.488281 7.78125 325.988281 C 6.488281 332.488281 5.355469 339.019531 4.382812 345.574219 C 3.410156 352.128906 2.601562 358.707031 1.949219 365.304688 C 1.300781 371.898438 0.8125 378.507812 0.488281 385.128906 C 0.164062 391.746094 0 398.371094 0 405 C 0 411.628906 0.164062 418.253906 0.488281 424.871094 C 0.8125 431.492188 1.300781 438.101562 1.949219 444.695312 C 2.601562 451.292969 3.410156 457.871094 4.382812 464.425781 C 5.355469 470.980469 6.488281 477.511719 7.78125 484.011719 C 9.074219 490.511719 10.527344 496.976562 12.136719 503.40625 C 13.746094 509.835938 15.515625 516.222656 17.4375 522.566406 C 19.363281 528.90625 21.441406 535.199219 23.675781 541.441406 C 25.90625 547.679688 28.292969 553.863281 30.828125 559.988281 C 33.367188 566.109375 36.050781 572.167969 38.882812 578.160156 C 41.71875 584.152344 44.699219 590.070312 47.820312 595.914062 C 50.945312 601.761719 54.210938 607.527344 57.621094 613.210938 C 61.027344 618.898438 64.574219 624.496094 68.253906 630.007812 C 71.9375 635.515625 75.753906 640.933594 79.699219 646.257812 C 83.648438 651.582031 87.726562 656.804688 91.929688 661.929688 C 96.136719 667.054688 100.464844 672.070312 104.914062 676.980469 C 109.367188 681.890625 113.933594 686.691406 118.621094 691.378906 C 123.308594 696.066406 128.109375 700.632812 133.019531 705.085938 C 137.929688 709.535156 142.945312 713.863281 148.070312 718.070312 C 153.195312 722.273438 158.417969 726.351562 163.742188 730.300781 C 169.066406 734.246094 174.484375 738.0625 179.992188 741.746094 C 185.503906 745.425781 191.101562 748.972656 196.789062 752.378906 C 202.472656 755.789062 208.238281 759.054688 214.085938 762.179688 C 219.929688 765.300781 225.847656 768.28125 231.839844 771.117188 C 237.832031 773.949219 243.890625 776.632812 250.011719 779.171875 C 256.136719 781.707031 262.320312 784.09375 268.558594 786.324219 C 274.800781 788.558594 281.09375 790.636719 287.433594 792.5625 C 293.777344 794.484375 300.164062 796.253906 306.59375 797.863281 C 313.023438 799.472656 319.488281 800.925781 325.988281 802.21875 C 332.488281 803.511719 339.019531 804.644531 345.574219 805.617188 C 352.128906 806.589844 358.707031 807.398438 365.304688 808.050781 C 371.898438 808.699219 378.507812 809.1875 385.128906 809.511719 C 391.746094 809.835938 398.371094 810 405 810 C 411.628906 810 418.253906 809.835938 424.871094 809.511719 C 431.492188 809.1875 438.101562 808.699219 444.695312 808.050781 C 451.292969 807.398438 457.871094 806.589844 464.425781 805.617188 C 470.980469 804.644531 477.511719 803.511719 484.011719 802.21875 C 490.511719 800.925781 496.976562 799.472656 503.40625 797.863281 C 509.835938 796.253906 516.222656 794.484375 522.566406 792.5625 C 528.90625 790.636719 535.199219 788.558594 541.441406 786.324219 C 547.679688 784.09375 553.863281 781.707031 559.988281 779.171875 C 566.109375 776.632812 572.167969 773.949219 578.160156 771.117188 C 584.152344 768.28125 590.070312 765.300781 595.914062 762.179688 C 601.761719 759.054688 607.527344 755.789062 613.210938 752.378906 C 618.898438 748.972656 624.496094 745.425781 630.007812 741.746094 C 635.515625 738.0625 640.933594 734.246094 646.257812 730.300781 C 651.582031 726.351562 656.804688 722.273438 661.929688 718.070312 C 667.054688 713.863281 672.070312 709.535156 676.980469 705.085938 C 681.890625 700.632812 686.691406 696.066406 691.378906 691.378906 C 696.066406 686.691406 700.632812 681.890625 705.085938 676.980469 C 709.535156 672.070312 713.863281 667.054688 718.070312 661.929688 C 722.273438 656.804688 726.351562 651.582031 730.300781 646.257812 C 734.246094 640.933594 738.0625 635.515625 741.746094 630.007812 C 745.425781 624.496094 748.972656 618.898438 752.378906 613.210938 C 755.789062 607.527344 759.054688 601.761719 762.179688 595.914062 C 765.300781 590.070312 768.28125 584.152344 771.117188 578.160156 C 773.949219 572.167969 776.632812 566.109375 779.171875 559.988281 C 781.707031 553.863281 784.09375 547.679688 786.324219 541.441406 C 788.558594 535.199219 790.636719 528.90625 792.5625 522.566406 C 794.484375 516.222656 796.253906 509.835938 797.863281 503.40625 C 799.472656 496.976562 800.925781 490.511719 802.21875 484.011719 C 803.511719 477.511719 804.644531 470.980469 805.617188 464.425781 C 806.589844 457.871094 807.398438 451.292969 808.050781 444.695312 C 808.699219 438.101562 809.1875 431.492188 809.511719 424.871094 C 809.835938 418.253906 810 411.628906 810 405 C 810 398.371094 809.835938 391.75 809.511719 385.128906 C 809.183594 378.507812 808.695312 371.902344 808.046875 365.304688 C 807.394531 358.707031 806.582031 352.132812 805.609375 345.578125 C 804.636719 339.019531 803.503906 332.492188 802.210938 325.992188 C 800.914062 319.492188 799.464844 313.027344 797.851562 306.597656 C 796.242188 300.167969 794.472656 293.78125 792.550781 287.441406 C 790.625 281.097656 788.546875 274.808594 786.3125 268.566406 C 784.078125 262.324219 781.695312 256.144531 779.15625 250.019531 C 776.621094 243.898438 773.933594 237.839844 771.101562 231.847656 C 768.265625 225.859375 765.289062 219.941406 762.164062 214.09375 C 759.039062 208.25 755.773438 202.484375 752.363281 196.800781 C 748.957031 191.113281 745.410156 185.515625 741.730469 180.007812 C 738.046875 174.496094 734.230469 169.078125 730.285156 163.753906 C 726.335938 158.429688 722.257812 153.207031 718.054688 148.085938 C 713.847656 142.960938 709.519531 137.945312 705.070312 133.03125 C 700.617188 128.121094 696.050781 123.324219 691.363281 118.636719 C 686.675781 113.949219 681.878906 109.382812 676.96875 104.929688 C 672.054688 100.480469 667.039062 96.152344 661.914062 91.945312 C 656.792969 87.742188 651.570312 83.664062 646.246094 79.714844 C 640.921875 75.769531 635.503906 71.953125 629.992188 68.269531 C 624.484375 64.589844 618.886719 61.042969 613.199219 57.636719 C 607.515625 54.226562 601.75 50.960938 595.90625 47.835938 C 590.058594 44.710938 584.140625 41.734375 578.152344 38.898438 C 572.160156 36.066406 566.101562 33.378906 559.980469 30.84375 C 553.855469 28.304688 547.671875 25.921875 541.433594 23.6875 C 535.191406 21.453125 528.902344 19.375 522.558594 17.449219 C 516.21875 15.527344 509.832031 13.757812 503.402344 12.148438 C 496.972656 10.535156 490.507812 9.085938 484.007812 7.789062 C 477.507812 6.496094 470.980469 5.363281 464.421875 4.390625 C 457.867188 3.417969 451.292969 2.605469 444.695312 1.953125 C 438.097656 1.304688 431.492188 0.816406 424.871094 0.492188 C 418.25 0.164062 411.628906 0 405 0 Z M 550.671875 658.125 L 259.328125 658.125 C 257.824219 658.125 256.324219 658.085938 254.824219 658.011719 C 253.324219 657.9375 251.828125 657.824219 250.335938 657.675781 C 248.839844 657.527344 247.351562 657.34375 245.867188 657.125 C 244.382812 656.902344 242.902344 656.644531 241.429688 656.351562 C 239.957031 656.058594 238.492188 655.726562 237.039062 655.363281 C 235.582031 654.996094 234.132812 654.59375 232.699219 654.160156 C 231.261719 653.722656 229.835938 653.25 228.421875 652.746094 C 227.007812 652.238281 225.609375 651.699219 224.222656 651.121094 C 222.835938 650.546875 221.464844 649.9375 220.105469 649.296875 C 218.75 648.65625 217.410156 647.980469 216.085938 647.269531 C 214.761719 646.5625 213.457031 645.824219 212.167969 645.050781 C 210.878906 644.277344 209.613281 643.476562 208.363281 642.640625 C 207.117188 641.804688 205.890625 640.941406 204.683594 640.046875 C 203.476562 639.152344 202.292969 638.230469 201.132812 637.277344 C 199.972656 636.324219 198.835938 635.34375 197.722656 634.335938 C 196.613281 633.328125 195.523438 632.292969 194.464844 631.230469 C 193.402344 630.167969 192.367188 629.082031 191.359375 627.96875 C 190.351562 626.855469 189.371094 625.71875 188.417969 624.558594 C 187.464844 623.398438 186.539062 622.214844 185.644531 621.011719 C 184.75 619.804688 183.886719 618.578125 183.054688 617.328125 C 182.21875 616.082031 181.414062 614.8125 180.644531 613.527344 C 179.871094 612.238281 179.132812 610.933594 178.421875 609.609375 C 177.714844 608.285156 177.039062 606.945312 176.398438 605.585938 C 175.753906 604.230469 175.144531 602.859375 174.570312 601.472656 C 173.996094 600.085938 173.457031 598.683594 172.949219 597.269531 C 172.441406 595.855469 171.972656 594.433594 171.535156 592.996094 C 171.097656 591.558594 170.695312 590.113281 170.332031 588.65625 C 169.964844 587.199219 169.636719 585.734375 169.34375 584.265625 C 169.050781 582.792969 168.792969 581.3125 168.570312 579.828125 C 168.347656 578.34375 168.164062 576.851562 168.015625 575.359375 C 167.867188 573.863281 167.757812 572.367188 167.683594 570.867188 C 167.609375 569.367188 167.570312 567.867188 167.570312 566.367188 C 167.570312 478.660156 240.214844 404.492188 339.1875 381.332031 C 234.773438 315.394531 279.828125 153.140625 405 151.875 C 530.171875 153.015625 575.226562 315.519531 470.8125 381.332031 C 569.785156 404.492188 642.429688 478.660156 642.429688 566.367188 C 642.429688 567.867188 642.390625 569.367188 642.316406 570.867188 C 642.242188 572.367188 642.132812 573.863281 641.984375 575.359375 C 641.835938 576.851562 641.652344 578.34375 641.429688 579.828125 C 641.207031 581.3125 640.949219 582.792969 640.65625 584.265625 C 640.363281 585.734375 640.035156 587.199219 639.667969 588.65625 C 639.304688 590.113281 638.902344 591.558594 638.464844 592.996094 C 638.027344 594.433594 637.558594 595.855469 637.050781 597.269531 C 636.542969 598.683594 636.003906 600.085938 635.429688 601.472656 C 634.855469 602.859375 634.246094 604.230469 633.601562 605.585938 C 632.960938 606.945312 632.285156 608.285156 631.578125 609.609375 C 630.867188 610.933594 630.128906 612.238281 629.355469 613.527344 C 628.585938 614.8125 627.78125 616.082031 626.945312 617.328125 C 626.113281 618.578125 625.25 619.804688 624.355469 621.011719 C 623.460938 622.214844 622.535156 623.398438 621.582031 624.558594 C 620.628906 625.71875 619.648438 626.855469 618.640625 627.96875 C 617.632812 629.082031 616.597656 630.167969 615.535156 631.230469 C 614.476562 632.292969 613.386719 633.328125 612.277344 634.335938 C 611.164062 635.34375 610.027344 636.324219 608.867188 637.277344 C 607.707031 638.230469 606.523438 639.152344 605.316406 640.046875 C 604.109375 640.941406 602.882812 641.804688 601.636719 642.640625 C 600.386719 643.476562 599.121094 644.277344 597.832031 645.050781 C 596.542969 645.824219 595.238281 646.5625 593.914062 647.269531 C 592.589844 647.980469 591.25 648.652344 589.894531 649.296875 C 588.535156 649.9375 587.164062 650.546875 585.777344 651.121094 C 584.390625 651.699219 582.992188 652.238281 581.578125 652.746094 C 580.164062 653.25 578.738281 653.722656 577.300781 654.160156 C 575.867188 654.59375 574.417969 654.996094 572.960938 655.363281 C 571.507812 655.726562 570.042969 656.058594 568.570312 656.351562 C 567.097656 656.644531 565.617188 656.902344 564.132812 657.125 C 562.648438 657.34375 561.160156 657.527344 559.664062 657.675781 C 558.171875 657.824219 556.675781 657.9375 555.175781 658.011719 C 553.675781 658.085938 552.175781 658.125 550.671875 658.125 Z M 550.671875 658.125 " fill-opacity="1" fill-rule="nonzero"/></svg>